<?xml version="1.0" encoding="UTF-8" standalone="no"?>
<!-- Created with Inkscape (http://www.inkscape.org/) -->

<svg
   width="1920mm"
   height="1080mm"
   viewBox="0 0 1920 1080"
   version="1.1"
   id="svg1"
   xml:space="preserve"
   xmlns="http://www.w3.org/2000/svg"
   xmlns:svg="http://www.w3.org/2000/svg"><defs
     id="defs1" /><g
     id="layer1"><g
       id="g10"><g
         id="g19"
         transform="translate(349.79734,53.62076)"><path
           id="path5"
           style="fill:#ececec;stroke-width:0.268916"
           d="m 604.56374,346.52792 c -77.23765,9e-5 -139.85111,62.61356 -139.8512,139.8512 -5e-5,77.23775 62.61345,139.85135 139.8512,139.85144 23.84522,-2e-5 49.91158,-2.31503 68.11973,-17.71173 19.95604,-16.87467 5.70991,-37.31229 -26.92048,-30.5545 -13.90854,2.88046 -26.99555,8.83997 -41.19925,8.83994 -55.46328,-4e-5 -100.42514,-44.96189 -100.42515,-100.42515 3e-5,-55.46328 44.96187,-100.42512 100.42515,-100.42515 55.46336,-1.1e-4 100.42536,44.96178 100.4254,100.42515 -4e-5,17.43285 -4.17684,18.79915 -5.67208,36.16777 -2.17798,25.29934 14.89282,47.12659 29.82227,26.77742 11.71545,-15.96843 15.53886,-44.19413 15.27585,-62.94519 -1.08326,-77.23016 -62.61371,-139.85125 -139.85144,-139.8512 z" /><path
           id="path6"
           style="fill:#666666;stroke-width:0.046778"
           d="m 673.40543,549.26706 c 4.20794,-4.23109 20.50229,0.002 20.50229,0.002 0,0 12.54667,3.4095 14.10695,9.16924 1.56026,5.75973 -8.57344,16.10412 -8.57344,16.10412 0,0 -10.90599,10.8111 -16.67418,9.28245 -5.76821,-1.52863 -9.05097,-15.57376 -9.05097,-15.57376 0,0 -4.5186,-14.75351 -0.31065,-18.98462 z" /><path
           id="path7"
           style="fill:#b3b3b3;stroke-width:0.0564919"
           d="m 712.13762,615.21397 c -13.564,-7.6022 -20.98597,-12.79982 -21.53621,-19.98528 -0.52997,-6.9208 5.31846,-14.16629 10.50275,-19.36828 5.4229,-5.44144 13.27052,-12.95466 20.2222,-11.05518 6.95165,1.89947 15.72577,12.83316 19.92977,19.75712 5.63991,9.28886 18.89371,33.53577 12.92522,39.47317 -5.59388,5.56474 -32.5247,-3.48644 -42.04373,-8.82155 z" /></g></g></g></svg>
