<?xml version="1.0" encoding="UTF-8" standalone="no"?>
<svg
   width="1000mm"
   height="1000mm"
   viewBox="-3 -3 1006 1006"
   version="1.1"
   id="svg1"
   xml:space="preserve"
   sodipodi:docname="quivo-darkgray-bg.svg"
   inkscape:version="1.4.2 (ebf0e940d0, 2025-05-08)"
   xmlns:inkscape="http://www.inkscape.org/namespaces/inkscape"
   xmlns:sodipodi="http://sodipodi.sourceforge.net/DTD/sodipodi-0.dtd"
   xmlns:xlink="http://www.w3.org/1999/xlink"
   xmlns="http://www.w3.org/2000/svg"
   xmlns:svg="http://www.w3.org/2000/svg"><sodipodi:namedview
     id="namedview1"
     pagecolor="#ffffff"
     bordercolor="#000000"
     borderopacity="0.25"
     inkscape:showpageshadow="2"
     inkscape:pageopacity="0.0"
     inkscape:pagecheckerboard="0"
     inkscape:deskcolor="#d1d1d1"
     inkscape:document-units="mm"
     inkscape:zoom="0.11356282"
     inkscape:cx="968.62686"
     inkscape:cy="1818.3768"
     inkscape:window-width="1536"
     inkscape:window-height="795"
     inkscape:window-x="0"
     inkscape:window-y="0"
     inkscape:window-maximized="1"
     inkscape:current-layer="svg1" /><g
     id="deeditor_bgCarrier"
     stroke-width="0"
     style="fill:url(#linearGradient6)">
    <rect
   id="dee_c_e"
   x="-3"
   y="-3"
   width="1006"
   height="1006"
   rx="0"
   fill="#161616"
   strokewidth="0"
   style="fill:url(#linearGradient6)" />
  </g><defs
     id="defs1"
     fill="#000000"><linearGradient
       id="linearGradient5"
       inkscape:collect="always"><stop
         style="stop-color:#000000;stop-opacity:1;"
         offset="0"
         id="stop5" /><stop
         style="stop-color:#292929;stop-opacity:1;"
         offset="1"
         id="stop6" /></linearGradient><linearGradient
       id="linearGradient3"
       inkscape:collect="always"><stop
         style="stop-color:#dddddd;stop-opacity:1;"
         offset="0"
         id="stop3" /><stop
         style="stop-color:#dddddd;stop-opacity:0.33226103;"
         offset="1"
         id="stop4" /></linearGradient><linearGradient
       id="linearGradient1"
       inkscape:collect="always"><stop
         style="stop-color:#515151;stop-opacity:1;"
         offset="0.15274183"
         id="stop8" /><stop
         style="stop-color:#5c5c5c;stop-opacity:1;"
         offset="0.33163315"
         id="stop1" /><stop
         style="stop-color:#959595;stop-opacity:0.89411765;"
         offset="0.72255671"
         id="stop7" /><stop
         style="stop-color:#ffffff;stop-opacity:0.58984375;"
         offset="1"
         id="stop2" /></linearGradient><linearGradient
       inkscape:collect="always"
       xlink:href="#linearGradient1"
       id="linearGradient2"
       x1="661.69519"
       y1="718.83315"
       x2="792.72684"
       y2="718.83315"
       gradientUnits="userSpaceOnUse" /><linearGradient
       inkscape:collect="always"
       xlink:href="#linearGradient3"
       id="linearGradient4"
       x1="207.27316"
       y1="500"
       x2="770.06152"
       y2="500"
       gradientUnits="userSpaceOnUse" /><linearGradient
       inkscape:collect="always"
       xlink:href="#linearGradient5"
       id="linearGradient6"
       x1="218.72595"
       y1="82.994118"
       x2="781.27405"
       y2="917.00598"
       gradientUnits="userSpaceOnUse" /></defs><path
     id="path5"
     style="fill:url(#linearGradient4);stroke-width:0.541061"
     d="m 488.65444,218.61847 c -155.40251,1.7e-4 -281.3811,125.97876 -281.38128,281.38127 -1.1e-4,155.40272 125.97856,281.38162 281.38128,281.38179 47.97671,-3e-5 100.42236,-4.65785 137.05726,-35.63606 40.15164,-33.95195 11.48835,-75.07252 -54.16413,-61.47584 -27.98409,5.79552 -54.31521,17.78607 -82.89313,17.786 -111.59236,-6e-5 -202.05583,-90.46353 -202.05589,-202.05589 7e-5,-111.59236 90.46353,-202.05582 202.05589,-202.05588 111.59256,-2.2e-4 202.05633,90.46332 202.0564,202.05588 -6e-5,35.07498 -8.40381,37.82401 -11.41223,72.76973 -4.38211,50.90242 29.96441,94.81895 60.00254,53.87629 23.57154,-32.12855 31.26426,-88.9188 30.73508,-126.64602 C 767.85671,344.61231 644.05715,218.61836 488.65444,218.61847 Z" /><path
     id="path6"
     style="fill:#afadad;stroke-width:0.0941176"
     d="m 627.16428,626.53061 c 8.46639,-8.51299 41.2507,0.004 41.2507,0.004 0,0 25.24399,6.85993 28.38326,18.44853 3.13927,11.58861 -17.24981,32.40159 -17.24981,32.40159 0,0 -21.9429,21.75196 -33.54855,18.67633 -11.60566,-3.07561 -18.21056,-31.33449 -18.21056,-31.33449 0,0 -9.09144,-29.68415 -0.62504,-38.19715 z" /><path
     id="path7"
     style="fill:url(#linearGradient2);stroke-width:0.113662"
     d="m 705.09365,759.21608 c -27.29085,-15.29567 -42.2239,-25.75327 -43.33096,-40.21046 -1.0663,-13.92468 10.70076,-28.50265 21.13156,-38.96908 10.91092,-10.9482 26.70038,-26.06482 40.68716,-22.24308 13.98678,3.82175 31.64033,25.82041 40.0988,39.75142 11.34752,18.68926 38.01424,67.47414 26.00562,79.42021 -11.25492,11.19629 -65.43985,-7.01472 -84.59218,-17.74901 z" /></svg>
