<?xml version="1.0" encoding="UTF-8" standalone="no"?>
<!-- Created with Inkscape (http://www.inkscape.org/) -->

<svg
   width="1000mm"
   height="1000mm"
   viewBox="0 0 1000 1000"
   version="1.1"
   id="svg1"
   xml:space="preserve"
   xmlns="http://www.w3.org/2000/svg"
   xmlns:svg="http://www.w3.org/2000/svg"><defs
     id="defs1" /><g
     id="layer1"><g
       id="g8"
       transform="translate(72.569239,22.5493)"><path
         id="path5"
         style="fill:#1a1a1a;stroke-width:0.541061"
         d="m 416.0852,196.06917 c -155.40251,1.7e-4 -281.3811,125.97876 -281.38128,281.38127 -1.1e-4,155.40272 125.97856,281.38162 281.38128,281.38179 47.97671,-3e-5 100.42236,-4.65785 137.05726,-35.63606 40.15164,-33.95195 11.48835,-75.07252 -54.16413,-61.47584 -27.98409,5.79552 -54.31521,17.78607 -82.89313,17.786 -111.59236,-6e-5 -202.05583,-90.46353 -202.05589,-202.05589 7e-5,-111.59236 90.46353,-202.05582 202.05589,-202.05588 111.59256,-2.2e-4 202.05633,90.46332 202.0564,202.05588 -6e-5,35.07498 -8.40381,37.82401 -11.41223,72.76973 -4.38211,50.90242 29.96441,94.81895 60.00254,53.87629 23.57154,-32.12855 31.26426,-88.9188 30.73508,-126.64602 C 695.28747,322.06301 571.48791,196.06906 416.0852,196.06917 Z" /><g
         id="g7"><path
           id="path6"
           style="fill:#1a1a1a;stroke-width:0.0941176"
           d="m 554.59504,603.98131 c 8.46639,-8.51299 41.2507,0.004 41.2507,0.004 0,0 25.24399,6.85993 28.38326,18.44853 3.13927,11.58861 -17.24981,32.40159 -17.24981,32.40159 0,0 -21.9429,21.75196 -33.54855,18.67633 -11.60566,-3.07561 -18.21056,-31.33449 -18.21056,-31.33449 0,0 -9.09144,-29.68415 -0.62504,-38.19715 z" /><path
           id="path7"
           style="fill:#999999;stroke-width:0.113662"
           d="m 632.52441,736.66678 c -27.29085,-15.29567 -42.2239,-25.75327 -43.33096,-40.21046 -1.0663,-13.92468 10.70076,-28.50265 21.13156,-38.96908 10.91092,-10.9482 26.70038,-26.06482 40.68716,-22.24308 13.98678,3.82175 31.64033,25.82041 40.0988,39.75142 11.34752,18.68926 38.01424,67.47414 26.00562,79.42021 -11.25492,11.19629 -65.43985,-7.01472 -84.59218,-17.74901 z" /></g></g></g></svg>
