<?xml version="1.0" encoding="UTF-8" standalone="no"?>
<!-- Created with Inkscape (http://www.inkscape.org/) -->

<svg
   width="1000mm"
   height="1000mm"
   viewBox="0 0 1000 1000"
   version="1.1"
   id="svg1"
   xml:space="preserve"
   xmlns="http://www.w3.org/2000/svg"
   xmlns:svg="http://www.w3.org/2000/svg"><defs
     id="defs1" /><g
     id="layer1"><g
       id="g10"><g
         id="g11"
         transform="translate(-2.0472248,-4.4901374)"><g
           id="g9"
           transform="matrix(0.42960151,0,0,0.42960151,15.152507,289.68938)"><path
             id="path5"
             style="fill:#1a1a1a;stroke-width:0.541061"
             d="m 488.65444,218.61847 c -155.40251,1.7e-4 -281.3811,125.97876 -281.38128,281.38127 -1.1e-4,155.40272 125.97856,281.38162 281.38128,281.38179 47.97671,-3e-5 100.42236,-4.65785 137.05726,-35.63606 40.15164,-33.95195 11.48835,-75.07252 -54.16413,-61.47584 -27.98409,5.79552 -54.31521,17.78607 -82.89313,17.786 -111.59236,-6e-5 -202.05583,-90.46353 -202.05589,-202.05589 7e-5,-111.59236 90.46353,-202.05582 202.05589,-202.05588 111.59256,-2.2e-4 202.05633,90.46332 202.0564,202.05588 -6e-5,35.07498 -8.40381,37.82401 -11.41223,72.76973 -4.38211,50.90242 29.96441,94.81895 60.00254,53.87629 23.57154,-32.12855 31.26426,-88.9188 30.73508,-126.64602 C 767.85671,344.61231 644.05715,218.61836 488.65444,218.61847 Z" /><g
             id="g8"><path
               id="path6"
               style="fill:#1a1a1a;stroke-width:0.0941176"
               d="m 627.16428,626.53061 c 8.46639,-8.51299 41.2507,0.004 41.2507,0.004 0,0 25.24399,6.85993 28.38326,18.44853 3.13927,11.58861 -17.24981,32.40159 -17.24981,32.40159 0,0 -21.9429,21.75196 -33.54855,18.67633 -11.60566,-3.07561 -18.21056,-31.33449 -18.21056,-31.33449 0,0 -9.09144,-29.68415 -0.62504,-38.19715 z" /><path
               id="path7"
               style="fill:#666666;stroke-width:0.113662"
               d="m 705.09365,759.21608 c -27.29085,-15.29567 -42.2239,-25.75327 -43.33096,-40.21046 -1.0663,-13.92468 10.70076,-28.50265 21.13156,-38.96908 10.91092,-10.9482 26.70038,-26.06482 40.68716,-22.24308 13.98678,3.82175 31.64033,25.82041 40.0988,39.75142 11.34752,18.68926 38.01424,67.47414 26.00562,79.42021 -11.25492,11.19629 -65.43985,-7.01472 -84.59218,-17.74901 z" /></g></g><path
           style="font-weight:300;font-size:269.337px;font-family:'Bookman Old Style';-inkscape-font-specification:'Bookman Old Style Light';fill:#4d4d4d;stroke-width:3.15628"
           d="m 358.46133,495.3065 49.84313,-1.97268 v 84.69386 q 0,11.17854 3.02478,17.75415 3.15629,6.57561 9.46888,10.25795 6.4441,3.55083 14.99239,3.55083 10.52098,0 23.80371,-5.65503 13.41425,-5.65502 26.69698,-16.83356 v -61.28469 q 0,-9.7319 -1.44663,-12.75668 -1.44664,-3.02478 -5.12898,-4.86595 -3.68234,-1.84118 -11.57307,-1.84118 h -9.6004 V 495.3065 l 49.84313,-1.97268 v 98.1081 q 0,9.46888 1.57815,13.15123 1.57814,3.55082 4.60293,5.12897 3.15629,1.44664 12.49366,1.44664 h 4.07687 v 11.04702 l -43.66205,2.23571 v -24.32976 q -18.01717,14.33483 -31.43142,19.85834 -13.41424,5.392 -27.22303,5.392 -10.25795,0 -17.88566,-2.76175 -7.49619,-2.76176 -13.28273,-8.28527 -5.65502,-5.52351 -8.6798,-13.28273 -3.02479,-7.75922 -3.02479,-16.57054 v -59.83806 q 0,-8.02224 -1.44663,-11.17854 -1.44663,-3.2878 -4.86595,-5.12897 -3.28781,-1.97269 -9.07434,-1.97269 h -12.09913 z m 222.78168,-62.4683 q 6.31259,0 10.784,4.47141 4.47142,4.33991 4.47142,10.65249 0,6.31259 -4.47142,10.784 -4.47141,4.47142 -10.784,4.47142 -6.31259,0 -10.784,-4.47142 -4.47142,-4.47141 -4.47142,-10.784 0,-6.31258 4.47142,-10.65249 4.47141,-4.47141 10.784,-4.47141 z m -33.53561,81.40606 v -10.91552 q 10.91551,-1.31512 18.28019,-3.68234 7.4962,-2.36722 16.96508,-7.49619 h 9.60039 V 597.623 q 0,5.52351 1.57815,8.28527 1.57814,2.76175 4.3399,4.07688 2.89327,1.18361 10.38946,1.18361 h 6.18108 v 11.04702 H 547.7074 v -11.04702 h 5.392 q 8.81132,0 11.8361,-1.57815 3.02478,-1.57815 4.20839,-4.47142 1.31512,-2.89326 1.31512,-13.54575 v -77.32918 z m 72.0687,-18.93776 h 60.23259 v 11.04702 h -3.68234 q -7.4962,0 -9.33737,0.52605 -2.63025,0.78908 -3.94537,2.49874 -1.31512,1.70965 -1.31512,4.07687 0,3.28781 2.89327,10.65249 l 29.98478,74.83045 29.0642,-74.83045 q 2.76176,-7.23317 2.76176,-10.52097 0,-3.41932 -2.63025,-5.26049 -2.63024,-1.97269 -9.46888,-1.97269 h -6.31258 V 495.3065 h 51.94732 v 11.04702 q -5.392,0.13152 -9.07434,1.70966 -3.55083,1.57815 -5.65503,4.07688 -1.97268,2.49873 -6.04956,11.96761 l -41.95239,98.10811 H 681.45532 L 639.2399,521.87197 q -2.63024,-6.18108 -5.78653,-10.12644 -2.1042,-2.49874 -5.65503,-3.94537 -3.41932,-1.44664 -8.02224,-1.44664 z m 216.20605,-3.15629 q 19.3323,0 33.4041,8.02224 14.20332,8.02225 22.35708,23.40917 8.15375,15.38693 8.15375,35.11376 0,19.72684 -8.41678,35.11376 -8.28527,15.38693 -22.75161,23.54069 -14.33483,8.02224 -34.32469,8.02224 -31.82595,0 -47.87044,-19.85834 -15.91298,-19.85834 -15.91298,-46.68683 0,-19.59532 8.28527,-34.71923 8.28527,-15.25541 23.14615,-23.54068 14.99239,-8.41678 33.93015,-8.41678 z m -1.0521,12.75668 q -14.99239,0 -25.38185,11.8361 -13.15122,14.72937 -13.15122,42.87298 0,27.09151 11.17853,41.29483 10.12644,12.62518 27.48606,12.62518 11.17853,0 19.85834,-5.91805 8.81132,-5.91805 14.20332,-18.80625 5.392,-13.01971 5.392,-30.51083 0,-17.09659 -5.78654,-30.64235 -4.47141,-10.784 -13.54576,-16.70205 -8.94283,-6.04956 -20.25288,-6.04956 z"
           id="text9"
           aria-label="uivo" /></g></g></g></svg>
