<?xml version="1.0" encoding="UTF-8" standalone="no"?>
<svg
   width="1920mm"
   height="1080mm"
   viewBox="-3 -3 1926 1086"
   version="1.1"
   id="svg1"
   xml:space="preserve"
   xmlns:xlink="http://www.w3.org/1999/xlink"
   xmlns="http://www.w3.org/2000/svg"
   xmlns:svg="http://www.w3.org/2000/svg"><g
     id="deeditor_bgCarrier"
     stroke-width="0">
    <rect
   id="dee_c_e"
   x="-3"
   y="-3"
   width="1926"
   height="1086"
   rx="0"
   fill="#050505"
   strokewidth="0" />
  </g><defs
     id="defs1"
     fill="#000000"><linearGradient
       id="linearGradient12"><stop
         style="stop-color:#ffffff;stop-opacity:1;"
         offset="0"
         id="stop12" /><stop
         style="stop-color:#dbdbdb;stop-opacity:1;"
         offset="0.2004177"
         id="stop14" /><stop
         style="stop-color:#9d9d9d;stop-opacity:1;"
         offset="0.54265934"
         id="stop15" /><stop
         style="stop-color:#a2a2a2;stop-opacity:1;"
         offset="0.77327311"
         id="stop16" /><stop
         style="stop-color:#121212;stop-opacity:1;"
         offset="0.99840462"
         id="stop13" /></linearGradient><linearGradient
       id="linearGradient5"><stop
         style="stop-color:#bcbcbc;stop-opacity:1;"
         offset="0"
         id="stop5" /><stop
         style="stop-color:#bcbcbc;stop-opacity:0.60278034;"
         offset="1"
         id="stop6" /></linearGradient><linearGradient
       id="linearGradient3"><stop
         style="stop-color:#757575;stop-opacity:1;"
         offset="0"
         id="stop3" /><stop
         style="stop-color:#757575;stop-opacity:1;"
         offset="0.24522293"
         id="stop7" /><stop
         style="stop-color:#757575;stop-opacity:1;"
         offset="0.53962231"
         id="stop8" /><stop
         style="stop-color:#949494;stop-opacity:1;"
         offset="0.80162722"
         id="stop9" /><stop
         style="stop-color:#ebebeb;stop-opacity:0.26741728;"
         offset="1"
         id="stop4" /></linearGradient><linearGradient
       id="linearGradient1"><stop
         style="stop-color:#ececec;stop-opacity:1;"
         offset="0"
         id="stop1" /><stop
         style="stop-color:#ececec;stop-opacity:0.1875;"
         offset="1"
         id="stop2" /></linearGradient><linearGradient
       xlink:href="#linearGradient1"
       id="linearGradient2"
       x1="464.71255"
       y1="486.37924"
       x2="744.42773"
       y2="486.37924"
       gradientUnits="userSpaceOnUse"
       gradientTransform="translate(349.79734,53.62076)" /><linearGradient
       xlink:href="#linearGradient3"
       id="linearGradient4"
       x1="690.56787"
       y1="595.14294"
       x2="755.69281"
       y2="595.14294"
       gradientUnits="userSpaceOnUse"
       gradientTransform="translate(349.79734,53.62076)" /><linearGradient
       xlink:href="#linearGradient5"
       id="linearGradient6"
       x1="1023.702"
       y1="610.43707"
       x2="1055.6831"
       y2="628.16449"
       gradientUnits="userSpaceOnUse" /><linearGradient
       xlink:href="#linearGradient12"
       id="linearGradient13"
       x1="915.16364"
       y1="596.95581"
       x2="1312.9708"
       y2="596.95581"
       gradientUnits="userSpaceOnUse"
       gradientTransform="matrix(0.94755603,0,0,0.94755603,24.879408,27.832862)" /></defs><g
     id="g9"
     transform="matrix(0.94755603,0,0,0.94755603,-153.78469,27.832862)"><path
       id="path5"
       style="fill:url(#linearGradient2);stroke-width:0.268916"
       d="m 954.36108,400.14868 c -77.23765,9e-5 -139.85111,62.61356 -139.8512,139.8512 -5e-5,77.23775 62.61345,139.85135 139.8512,139.85144 23.84522,-2e-5 49.91162,-2.31503 68.11972,-17.71173 19.9561,-16.87467 5.7099,-37.31229 -26.92047,-30.5545 -13.90854,2.88046 -26.99555,8.83997 -41.19925,8.83994 -55.46328,-4e-5 -100.42514,-44.96189 -100.42515,-100.42515 3e-5,-55.46328 44.96187,-100.42512 100.42515,-100.42515 55.46332,-1.1e-4 100.42532,44.96178 100.42542,100.42515 -10e-5,17.43285 -4.1769,18.79915 -5.6721,36.16777 -2.178,25.29934 14.8928,47.12659 29.8223,26.77742 11.7154,-15.96843 15.5388,-44.19413 15.2758,-62.94519 -1.0832,-77.23016 -62.6137,-139.85125 -139.85142,-139.8512 z" /><path
       id="path6"
       style="fill:url(#linearGradient6);stroke-width:0.046778"
       d="m 1023.2028,602.88782 c 4.2079,-4.23109 20.5023,0.002 20.5023,0.002 0,0 12.5466,3.4095 14.1069,9.16924 1.5603,5.75973 -8.5734,16.10412 -8.5734,16.10412 0,0 -10.906,10.8111 -16.6742,9.28245 -5.7682,-1.52863 -9.051,-15.57376 -9.051,-15.57376 0,0 -4.5186,-14.75351 -0.3106,-18.98462 z" /><path
       id="path7"
       style="fill:url(#linearGradient4);stroke-width:0.0564919"
       d="m 1061.935,668.83473 c -13.564,-7.6022 -20.986,-12.79982 -21.5362,-19.98528 -0.53,-6.9208 5.3184,-14.16629 10.5027,-19.36828 5.4229,-5.44144 13.2705,-12.95466 20.2222,-11.05518 6.9517,1.89947 15.7258,12.83316 19.9298,19.75712 5.6399,9.28886 18.8937,33.53577 12.9252,39.47317 -5.5939,5.56474 -32.5247,-3.48644 -42.0437,-8.82155 z" /></g><path
     style="font-size:221.579px;font-family:'Liberation Serif';-inkscape-font-specification:'Liberation Serif';fill:url(#linearGradient13);stroke-width:8.90233"
     d="m 914.33586,641.41154 c 0,12.40611 5.77029,18.60917 17.31086,18.60917 8.94395,0 17.31086,-1.11799 25.10075,-3.35398 v -80.3873 l -15.36339,-2.70482 v -4.86868 h 33.21521 v 94.1278 l 12.87495,2.70482 v 4.86868 H 957.8294 l -0.86555,-8.22266 c -5.12113,2.81301 -11.03567,5.26538 -17.74363,7.35711 -6.70795,2.0196 -12.33398,3.0294 -16.87808,3.0294 -17.31086,0 -25.96629,-9.95374 -25.96629,-29.86123 v -66.43042 l -12.98315,-2.70482 v -4.86868 h 30.94316 z M 1042.2034,535.96392 c 0,3.17366 -13.7682,3.09912 -16.0763,5.40723 -2.3081,2.30811 -4.3011,12.42924 -7.5468,12.42924 -3.1737,0 -2.5161,-9.61923 -4.8242,-11.92734 -2.3081,-2.30811 -14.43195,-5.10148 -14.43195,-8.27514 0,-3.24579 11.62195,-3.79533 13.93005,-6.10344 2.3081,-2.30811 3.0988,-13.26082 6.2725,-13.26082 3.2457,0 5.4634,12.12383 7.7715,14.43194 2.3081,2.30811 14.9052,4.05254 14.9052,7.29833 z m -11.0192,126.86981 17.419,2.70482 v 4.86868 h -52.68991 v -4.86868 l 17.31081,-2.70482 v -86.5543 l -14.38961,-2.70482 v -4.86868 h 32.34971 z m 81.902,9.73735 h -8.0063 l -41.8706,-96.29165 -10.3866,-2.70482 v -4.86868 h 47.3885 v 4.86868 l -16.1207,2.92121 29.6448,70.21717 28.3466,-70.43356 -16.1208,-2.70482 v -4.86868 h 37.6511 v 4.86868 l -9.7373,2.27205 z m 152.8765,-53.55547 c 0,35.70365 -15.8683,53.55547 -47.6049,53.55547 -15.2913,0 -26.8318,-4.58016 -34.6217,-13.74049 -7.7899,-9.16033 -11.6848,-22.43199 -11.6848,-39.81498 0,-17.1666 3.8949,-30.294 11.6848,-39.3822 7.7899,-9.0882 19.619,-13.6323 35.4873,-13.6323 15.4355,0 27.0843,4.47197 34.9463,13.41591 7.862,8.87182 11.793,22.07135 11.793,39.59859 z m -19.4747,0 c 0,-15.57977 -2.2721,-26.86789 -6.8162,-33.86436 -4.5441,-6.99647 -11.6487,-10.49471 -21.314,-10.49471 -9.4488,0 -16.301,3.35398 -20.5566,10.06193 -4.1835,6.70796 -6.2752,18.14034 -6.2752,34.29714 0,16.37319 2.1278,27.9859 6.3834,34.83811 4.3277,6.78009 11.1439,10.17013 20.4484,10.17013 9.521,0 16.5896,-3.5343 21.2058,-10.6029 4.6163,-7.0686 6.9244,-18.53705 6.9244,-34.40534 z"
     id="text9"
     aria-label="uivo" /></svg>
