<?xml version="1.0" encoding="UTF-8" standalone="no"?>
<svg
   width="1920mm"
   height="1080mm"
   viewBox="-3 -3 1926 1086"
   version="1.1"
   id="svg1"
   xml:space="preserve"
   xmlns:xlink="http://www.w3.org/1999/xlink"
   xmlns="http://www.w3.org/2000/svg"
   xmlns:svg="http://www.w3.org/2000/svg"><g
     id="deeditor_bgCarrier"
     stroke-width="0">
    <rect
   id="dee_c_e"
   x="-3"
   y="-3"
   width="1926"
   height="1086"
   rx="0"
   fill="#050505"
   strokewidth="0" />
  </g><defs
     id="defs1"
     fill="#000000"><linearGradient
       id="linearGradient173"><stop
         style="stop-color:#595959;stop-opacity:1;"
         offset="0"
         id="stop173" /><stop
         style="stop-color:#e7e7e7;stop-opacity:1;"
         offset="0.52249491"
         id="stop175" /><stop
         style="stop-color:#6a6a6a;stop-opacity:1;"
         offset="0.99835259"
         id="stop174" /></linearGradient><linearGradient
       id="linearGradient12"><stop
         style="stop-color:#ffffff;stop-opacity:1;"
         offset="0"
         id="stop12" /><stop
         style="stop-color:#dbdbdb;stop-opacity:1;"
         offset="0.2004177"
         id="stop14" /><stop
         style="stop-color:#9d9d9d;stop-opacity:1;"
         offset="0.54265934"
         id="stop15" /><stop
         style="stop-color:#a2a2a2;stop-opacity:1;"
         offset="0.77327311"
         id="stop16" /><stop
         style="stop-color:#121212;stop-opacity:1;"
         offset="0.99840462"
         id="stop13" /></linearGradient><linearGradient
       id="linearGradient5"><stop
         style="stop-color:#bcbcbc;stop-opacity:1;"
         offset="0"
         id="stop5" /><stop
         style="stop-color:#bcbcbc;stop-opacity:0.60278034;"
         offset="1"
         id="stop6" /></linearGradient><linearGradient
       id="linearGradient3"><stop
         style="stop-color:#757575;stop-opacity:1;"
         offset="0"
         id="stop3" /><stop
         style="stop-color:#757575;stop-opacity:1;"
         offset="0.24522293"
         id="stop7" /><stop
         style="stop-color:#757575;stop-opacity:1;"
         offset="0.53962231"
         id="stop8" /><stop
         style="stop-color:#949494;stop-opacity:1;"
         offset="0.80162722"
         id="stop9" /><stop
         style="stop-color:#ebebeb;stop-opacity:0.26741728;"
         offset="1"
         id="stop4" /></linearGradient><linearGradient
       id="linearGradient1"><stop
         style="stop-color:#ececec;stop-opacity:1;"
         offset="0"
         id="stop1" /><stop
         style="stop-color:#ececec;stop-opacity:0.1875;"
         offset="1"
         id="stop2" /></linearGradient><linearGradient
       xlink:href="#linearGradient1"
       id="linearGradient2"
       x1="464.71255"
       y1="486.37924"
       x2="744.42773"
       y2="486.37924"
       gradientUnits="userSpaceOnUse"
       gradientTransform="translate(349.79734,53.62076)" /><linearGradient
       xlink:href="#linearGradient3"
       id="linearGradient4"
       x1="690.56787"
       y1="595.14294"
       x2="755.69281"
       y2="595.14294"
       gradientUnits="userSpaceOnUse"
       gradientTransform="translate(349.79734,53.62076)" /><linearGradient
       xlink:href="#linearGradient5"
       id="linearGradient6"
       x1="1023.702"
       y1="610.43707"
       x2="1055.6831"
       y2="628.16449"
       gradientUnits="userSpaceOnUse" /><linearGradient
       xlink:href="#linearGradient12"
       id="linearGradient13"
       x1="915.16364"
       y1="596.95581"
       x2="1312.9708"
       y2="596.95581"
       gradientUnits="userSpaceOnUse"
       gradientTransform="matrix(0.94755603,0,0,0.94755603,24.879408,27.832862)" /><linearGradient
       xlink:href="#linearGradient173"
       id="linearGradient174"
       x1="796.41827"
       y1="668.28925"
       x2="1159.3531"
       y2="668.28925"
       gradientUnits="userSpaceOnUse"
       gradientTransform="translate(-17.885678,-2.3429992)" /></defs><path
     id="path1"
     style="fill:#ffffff;stroke-width:0.210209"
     d="m 1215.2164,894.35696 c -1.4202,0.0166 -1.0721,-2.72177 -2.0882,-3.71431 -1.016,-0.99253 -3.7455,-0.58053 -3.7621,-2.00079 -0.017,-1.42026 2.7218,-1.07219 3.7143,-2.0882 0.9926,-1.01602 0.5806,-3.74551 2.0008,-3.76211 1.4203,-0.0166 1.0722,2.72177 2.0882,3.7143 1.0161,0.99254 3.7456,0.58055 3.7621,2.00081 0.017,1.42026 -2.7217,1.07218 -3.7143,2.08819 -0.9925,1.01602 -0.5805,3.74551 -2.0008,3.76211 z" /><use
     id="use25"
     xlink:href="#path1"
     transform="translate(189.56693,-100.77846)" /><use
     id="use26"
     xlink:href="#path1"
     transform="translate(252.26019,-255.32748)" /><use
     id="use27"
     xlink:href="#path1"
     transform="translate(308.16513,-275.8285)" /><use
     id="use28"
     xlink:href="#path1"
     transform="translate(391.62897,-368.25033)" /><use
     id="use30"
     xlink:href="#path1"
     transform="translate(453.58366,-476.63317)" /><use
     id="use31"
     xlink:href="#path1"
     transform="translate(314.58506,-219.37976)" /><use
     id="use32"
     xlink:href="#path1"
     transform="translate(291.77893,-74.354632)" /><use
     id="use33"
     xlink:href="#path1"
     transform="translate(321.27268,-14.112286)" /><use
     id="use34"
     xlink:href="#path1"
     transform="translate(267.85946,-9.6050792)" /><use
     id="use35"
     xlink:href="#path1"
     transform="translate(162.18127,152.986)" /><use
     id="use36"
     xlink:href="#path1"
     transform="translate(128.98486,35.197448)" /><use
     id="use37"
     xlink:href="#path1"
     transform="translate(148.78477,60.532983)" /><use
     id="use38"
     xlink:href="#path1"
     transform="translate(237.8267,-82.578673)" /><use
     id="use39"
     xlink:href="#path1"
     transform="translate(418.06333,-95.57964)" /><use
     id="use40"
     xlink:href="#path1"
     transform="translate(389.86101,-141.60871)" /><use
     id="use41"
     xlink:href="#path1"
     transform="translate(572.21025,-265.98066)" /><use
     id="use42"
     xlink:href="#path1"
     transform="translate(474.34466,-274.90002)" /><use
     id="use43"
     xlink:href="#path1"
     transform="translate(378.34131,-180.80486)" /><use
     id="use44"
     xlink:href="#path1"
     transform="translate(446.85139,-109.00031)" /><use
     id="use45"
     xlink:href="#path1"
     transform="translate(434.63278,59.905393)" /><use
     id="use46"
     xlink:href="#path1"
     transform="translate(233.40277,-16.564762)" /><use
     id="use47"
     xlink:href="#path1"
     transform="translate(0.39199582,172.32571)" /><use
     id="use48"
     xlink:href="#path1"
     transform="translate(-58.312761,81.54332)" /><use
     id="use49"
     xlink:href="#path1"
     transform="translate(159.19462,84.252861)" /><use
     id="use50"
     xlink:href="#path1"
     transform="translate(310.55775,37.193993)" /><use
     id="use51"
     xlink:href="#path1"
     transform="translate(472.29657,68.011701)" /><use
     id="use52"
     xlink:href="#path1"
     transform="translate(446.20067,52.942239)" /><use
     id="use53"
     xlink:href="#path1"
     transform="translate(570.6123,-170.83015)" /><use
     id="use54"
     xlink:href="#path1"
     transform="translate(433.6982,-299.18301)" /><use
     id="use55"
     xlink:href="#path1"
     transform="translate(573.8425,-532.23192)" /><use
     id="use56"
     xlink:href="#path1"
     transform="translate(491.57347,-452.06093)" /><use
     id="use57"
     xlink:href="#path1"
     transform="translate(610.68204,-649.4599)" /><use
     id="use58"
     xlink:href="#path1"
     transform="translate(624.88177,-688.94119)" /><use
     id="use59"
     xlink:href="#path1"
     transform="translate(567.64185,-868.94465)" /><use
     id="use60"
     xlink:href="#path1"
     transform="translate(649.10747,-697.19521)" /><use
     id="use61"
     xlink:href="#path1"
     transform="translate(592.67956,-619.34667)" /><use
     id="use62"
     xlink:href="#path1"
     transform="translate(489.62564,-656.1854)" /><use
     id="use63"
     xlink:href="#path1"
     transform="translate(478.408,-598.43208)" /><use
     id="use64"
     xlink:href="#path1"
     transform="translate(415.34103,-481.72439)" /><use
     id="use66"
     xlink:href="#path1"
     transform="translate(447.28794,-494.94736)" /><use
     id="use67"
     xlink:href="#path1"
     transform="translate(513.94532,-754.71973)" /><use
     id="use68"
     xlink:href="#path1"
     transform="translate(489.66713,-770.45225)" /><use
     id="use69"
     xlink:href="#path1"
     transform="translate(544.68923,-833.10799)" /><use
     id="use70"
     xlink:href="#path1"
     transform="translate(620.00581,-724.52714)" /><use
     id="use71"
     xlink:href="#path1"
     transform="translate(567.76262,-363.09902)" /><use
     id="use72"
     xlink:href="#path1"
     transform="translate(629.72215,-188.34858)" /><use
     id="use73"
     xlink:href="#path1"
     transform="translate(471.89706,-47.215939)" /><use
     id="use74"
     xlink:href="#path1"
     transform="translate(591.92122,104.6006)" /><use
     id="use75"
     xlink:href="#path1"
     transform="translate(573.19612,-7.5179265)" /><use
     id="use76"
     xlink:href="#path1"
     transform="translate(663.57286,-189.77584)" /><use
     id="use77"
     xlink:href="#path1"
     transform="translate(573.9237,-326.65823)" /><use
     id="use78"
     xlink:href="#path1"
     transform="translate(570.0128,-472.17696)" /><use
     id="use79"
     xlink:href="#path1"
     transform="translate(548.0063,-505.55148)" /><use
     id="use80"
     xlink:href="#path1"
     transform="translate(595.35869,-581.24643)" /><use
     id="use81"
     xlink:href="#path1"
     transform="translate(586.11212,-543.60705)" /><use
     id="use82"
     xlink:href="#path1"
     transform="translate(640.55139,-379.4323)" /><use
     id="use83"
     xlink:href="#path1"
     transform="translate(559.8859,-421.57171)" /><use
     id="use84"
     xlink:href="#path1"
     transform="translate(670.83054,-290.68443)" /><use
     id="use86"
     xlink:href="#path1"
     transform="translate(681.9709,-216.34183)" /><use
     id="use87"
     xlink:href="#path1"
     transform="translate(662.1994,-63.862322)" /><use
     id="use88"
     xlink:href="#path1"
     transform="translate(528.00146,-25.364479)" /><use
     id="use89"
     xlink:href="#path1"
     transform="translate(599.49728,57.855313)" /><use
     id="use90"
     xlink:href="#path1"
     transform="translate(523.13136,160.5412)" /><use
     id="use91"
     xlink:href="#path1"
     transform="translate(313.70944,141.29028)" /><use
     id="use93"
     xlink:href="#path1"
     transform="translate(261.76263,84.980628)" /><use
     id="use94"
     xlink:href="#path1"
     transform="translate(163.44118,174.30526)" /><use
     id="use95"
     xlink:href="#path1"
     transform="translate(394.90108,156.88127)" /><use
     id="use96"
     xlink:href="#path1"
     transform="translate(347.34881,179.03384)" /><use
     id="use97"
     xlink:href="#path1"
     transform="translate(430.12449,157.3465)" /><use
     id="use98"
     xlink:href="#path1"
     transform="translate(654.37485,76.402992)" /><use
     id="use99"
     xlink:href="#path1"
     transform="translate(641.51784,144.42839)" /><use
     id="use100"
     xlink:href="#path1"
     transform="translate(604.78488,-58.145439)" /><use
     id="use101"
     xlink:href="#path1"
     transform="translate(476.7936,-168.02361)" /><use
     id="use102"
     xlink:href="#path1"
     transform="translate(441.6476,-328.71537)" /><use
     id="use103"
     xlink:href="#path1"
     transform="translate(478.30737,-292.91357)" /><use
     id="use104"
     xlink:href="#path1"
     transform="translate(538.32924,-198.04649)" /><use
     id="use105"
     xlink:href="#path1"
     transform="translate(354.0133,-13.730557)" /><use
     id="use106"
     xlink:href="#path1"
     transform="translate(444.60927,-35.598549)" /><use
     id="use107"
     xlink:href="#path1"
     transform="translate(425.86528,-32.47455)" /><use
     id="use108"
     xlink:href="#path1"
     transform="translate(223.32956,-69.91113)" /><use
     id="use109"
     xlink:href="#path1"
     transform="translate(343.0195,-24.368461)" /><use
     id="use110"
     xlink:href="#path1"
     transform="translate(244.67334,-35.598549)" /><use
     id="use111"
     xlink:href="#path1"
     transform="translate(10.373422,45.625423)" /><use
     id="use112"
     xlink:href="#path1"
     transform="translate(211.13744,13.007487)" /><use
     id="use113"
     xlink:href="#path1"
     transform="translate(262.47125,44.580979)" /><use
     id="use114"
     xlink:href="#path1"
     transform="translate(241.54934,61.245417)" /><use
     id="use115"
     xlink:href="#path1"
     transform="translate(-30.238564,117.4774)" /><use
     id="use116"
     xlink:href="#path1"
     transform="translate(-145.82652,133.09739)" /><use
     id="use117"
     xlink:href="#path1"
     transform="translate(-111.46254,136.22139)" /><use
     id="use118"
     xlink:href="#path1"
     transform="translate(39.831948,149.58143)" /><use
     id="use119"
     xlink:href="#path1"
     transform="translate(100.96939,114.3534)" /><use
     id="use120"
     xlink:href="#path1"
     transform="translate(212.55818,79.882263)" /><use
     id="use121"
     xlink:href="#path1"
     transform="translate(66.702444,-2.6812115)" /><use
     id="use122"
     xlink:href="#path1"
     transform="translate(103.29211,28.102049)" /><use
     id="use123"
     xlink:href="#path1"
     transform="translate(292.60016,49.896754)" /><use
     id="use124"
     xlink:href="#path1"
     transform="translate(229.05335,42.501424)" /><use
     id="use125"
     xlink:href="#path1"
     transform="translate(503.28452,-312.41177)" /><use
     id="use126"
     xlink:href="#path1"
     transform="translate(520.06457,-346.48911)" /><use
     id="use127"
     xlink:href="#path1"
     transform="translate(507.08925,-332.37845)" /><use
     id="use128"
     xlink:href="#path1"
     transform="translate(594.56122,-601.04235)" /><use
     id="use129"
     xlink:href="#path1"
     transform="translate(694.72046,-601.54135)" /><use
     id="use130"
     xlink:href="#path1"
     transform="translate(648.31225,-593.72149)" /><use
     id="use131"
     xlink:href="#path1"
     transform="translate(641.4212,-532.31438)" /><use
     id="use132"
     xlink:href="#path1"
     transform="translate(603.93322,-385.48643)" /><use
     id="use133"
     xlink:href="#path1"
     transform="translate(666.76376,-493.62154)" /><use
     id="use134"
     xlink:href="#path1"
     transform="translate(640.26801,-539.34797)" /><use
     id="use135"
     xlink:href="#path1"
     transform="translate(625.80121,-463.5864)" /><use
     id="use136"
     xlink:href="#path1"
     transform="translate(647.6692,-407.35442)" /><use
     id="use137"
     xlink:href="#path1"
     transform="translate(537.31765,-571.61157)" /><use
     id="use139"
     xlink:href="#path1"
     transform="translate(657.0412,-800.97829)" /><use
     id="use140"
     xlink:href="#path1"
     transform="translate(622.67721,-829.09428)" /><use
     id="use141"
     xlink:href="#path1"
     transform="translate(541.45324,-594.79436)" /><use
     id="use142"
     xlink:href="#path1"
     transform="translate(527.70449,-747.83976)" /><use
     id="use143"
     xlink:href="#path1"
     transform="translate(505.68804,-806.07023)" /><use
     id="use144"
     xlink:href="#path1"
     transform="translate(588.31322,-735.37431)" /><use
     id="use145"
     xlink:href="#path1"
     transform="translate(576.89915,-722.1162)" /><use
     id="use146"
     xlink:href="#path1"
     transform="translate(632.30741,-818.55781)" /><use
     id="use147"
     xlink:href="#path1"
     transform="translate(544.57724,-747.8703)" /><use
     id="use151"
     xlink:href="#path1"
     transform="translate(73.962964,23.416599)" /><use
     id="use153"
     xlink:href="#path1"
     transform="translate(389.40799,-215.99798)" /><use
     id="use154"
     xlink:href="#path1"
     transform="translate(491.46926,-735.37431)" /><use
     id="use155"
     xlink:href="#path1"
     transform="translate(478.47972,-428.46525)" /><use
     id="use156"
     xlink:href="#path1"
     transform="translate(406.43347,-396.95493)" /><use
     id="use157"
     xlink:href="#path1"
     transform="translate(339.12785,-288.2368)" /><use
     id="use158"
     xlink:href="#path1"
     transform="translate(344.64131,-291.76646)" /><use
     id="use160"
     xlink:href="#path1"
     transform="translate(391.90879,-230.51057)" /><use
     id="use161"
     xlink:href="#path1"
     transform="translate(469.09228,-328.137)" /><use
     id="use162"
     xlink:href="#path1"
     transform="translate(-136.1088,104.54916)" /><use
     id="use163"
     xlink:href="#path1"
     transform="translate(138.70961,91.74508)" /><use
     id="use164"
     xlink:href="#path1"
     transform="translate(-20.149174,22.806857)" /><use
     id="use165"
     xlink:href="#path1"
     transform="translate(-195.31306,114.41746)" /><use
     id="use166"
     xlink:href="#path1"
     transform="translate(-176.20791,125.07286)" /><use
     id="use168"
     xlink:href="#path1"
     transform="translate(-236.42249,145.59339)" /><use
     id="use169"
     xlink:href="#path1"
     transform="translate(-233.29849,167.46138)" /><use
     id="use170"
     xlink:href="#path1"
     transform="translate(-192.68651,158.08938)" /><use
     id="use172"
     xlink:href="#path1"
     transform="translate(-120.83453,142.46939)" /><use
     id="use173"
     xlink:href="#path1"
     transform="translate(-58.354555,139.34539)" /><g
     id="g175"
     transform="matrix(0.91417061,0,0,0.91417061,82.396228,16.422138)"><g
       id="g2"
       transform="matrix(0.57579187,0,0,0.57579187,417.61218,229.197)"><g
         id="g9"
         transform="matrix(0.94755603,0,0,0.94755603,-153.78469,27.832862)"><path
           id="path5"
           style="fill:url(#linearGradient2);stroke-width:0.268916"
           d="m 954.36108,400.14868 c -77.23765,9e-5 -139.85111,62.61356 -139.8512,139.8512 -5e-5,77.23775 62.61345,139.85135 139.8512,139.85144 23.84522,-2e-5 49.91162,-2.31503 68.11972,-17.71173 19.9561,-16.87467 5.7099,-37.31229 -26.92047,-30.5545 -13.90854,2.88046 -26.99555,8.83997 -41.19925,8.83994 -55.46328,-4e-5 -100.42514,-44.96189 -100.42515,-100.42515 3e-5,-55.46328 44.96187,-100.42512 100.42515,-100.42515 55.46332,-1.1e-4 100.42532,44.96178 100.42542,100.42515 -10e-5,17.43285 -4.1769,18.79915 -5.6721,36.16777 -2.178,25.29934 14.8928,47.12659 29.8223,26.77742 11.7154,-15.96843 15.5388,-44.19413 15.2758,-62.94519 -1.0832,-77.23016 -62.6137,-139.85125 -139.85142,-139.8512 z" /><path
           id="path6"
           style="fill:url(#linearGradient6);stroke-width:0.046778"
           d="m 1023.2028,602.88782 c 4.2079,-4.23109 20.5023,0.002 20.5023,0.002 0,0 12.5466,3.4095 14.1069,9.16924 1.5603,5.75973 -8.5734,16.10412 -8.5734,16.10412 0,0 -10.906,10.8111 -16.6742,9.28245 -5.7682,-1.52863 -9.051,-15.57376 -9.051,-15.57376 0,0 -4.5186,-14.75351 -0.3106,-18.98462 z" /><path
           id="path7"
           style="fill:url(#linearGradient4);stroke-width:0.0564919"
           d="m 1061.935,668.83473 c -13.564,-7.6022 -20.986,-12.79982 -21.5362,-19.98528 -0.53,-6.9208 5.3184,-14.16629 10.5027,-19.36828 5.4229,-5.44144 13.2705,-12.95466 20.2222,-11.05518 6.9517,1.89947 15.7258,12.83316 19.9298,19.75712 5.6399,9.28886 18.8937,33.53577 12.9252,39.47317 -5.5939,5.56474 -32.5247,-3.48644 -42.0437,-8.82155 z" /></g><path
         style="font-size:221.579px;font-family:'Liberation Serif';-inkscape-font-specification:'Liberation Serif';fill:url(#linearGradient13);stroke-width:8.90233"
         d="m 914.33586,641.41154 c 0,12.40611 5.77029,18.60917 17.31086,18.60917 8.94395,0 17.31086,-1.11799 25.10075,-3.35398 v -80.3873 l -15.36339,-2.70482 v -4.86868 h 33.21521 v 94.1278 l 12.87495,2.70482 v 4.86868 H 957.8294 l -0.86555,-8.22266 c -5.12113,2.81301 -11.03567,5.26538 -17.74363,7.35711 -6.70795,2.0196 -12.33398,3.0294 -16.87808,3.0294 -17.31086,0 -25.96629,-9.95374 -25.96629,-29.86123 v -66.43042 l -12.98315,-2.70482 v -4.86868 h 30.94316 z M 1042.2034,535.96392 c 0,3.17366 -13.7682,3.09912 -16.0763,5.40723 -2.3081,2.30811 -4.3011,12.42924 -7.5468,12.42924 -3.1737,0 -2.5161,-9.61923 -4.8242,-11.92734 -2.3081,-2.30811 -14.43195,-5.10148 -14.43195,-8.27514 0,-3.24579 11.62195,-3.79533 13.93005,-6.10344 2.3081,-2.30811 3.0988,-13.26082 6.2725,-13.26082 3.2457,0 5.4634,12.12383 7.7715,14.43194 2.3081,2.30811 14.9052,4.05254 14.9052,7.29833 z m -11.0192,126.86981 17.419,2.70482 v 4.86868 h -52.68991 v -4.86868 l 17.31081,-2.70482 v -86.5543 l -14.38961,-2.70482 v -4.86868 h 32.34971 z m 81.902,9.73735 h -8.0063 l -41.8706,-96.29165 -10.3866,-2.70482 v -4.86868 h 47.3885 v 4.86868 l -16.1207,2.92121 29.6448,70.21717 28.3466,-70.43356 -16.1208,-2.70482 v -4.86868 h 37.6511 v 4.86868 l -9.7373,2.27205 z m 152.8765,-53.55547 c 0,35.70365 -15.8683,53.55547 -47.6049,53.55547 -15.2913,0 -26.8318,-4.58016 -34.6217,-13.74049 -7.7899,-9.16033 -11.6848,-22.43199 -11.6848,-39.81498 0,-17.1666 3.8949,-30.294 11.6848,-39.3822 7.7899,-9.0882 19.619,-13.6323 35.4873,-13.6323 15.4355,0 27.0843,4.47197 34.9463,13.41591 7.862,8.87182 11.793,22.07135 11.793,39.59859 z m -19.4747,0 c 0,-15.57977 -2.2721,-26.86789 -6.8162,-33.86436 -4.5441,-6.99647 -11.6487,-10.49471 -21.314,-10.49471 -9.4488,0 -16.301,3.35398 -20.5566,10.06193 -4.1835,6.70796 -6.2752,18.14034 -6.2752,34.29714 0,16.37319 2.1278,27.9859 6.3834,34.83811 4.3277,6.78009 11.1439,10.17013 20.4484,10.17013 9.521,0 16.5896,-3.5343 21.2058,-10.6029 4.6163,-7.0686 6.9244,-18.53705 6.9244,-34.40534 z"
         id="text9"
         aria-label="uivo" /></g><text
       xml:space="preserve"
       style="font-size:32.3761px;font-family:'Liberation Serif';-inkscape-font-specification:'Liberation Serif';text-align:start;writing-mode:lr-tb;direction:ltr;text-anchor:start;fill:url(#linearGradient174);stroke-width:1.30077"
       x="775.84515"
       y="675.74756"
       id="text173"><tspan
         id="tspan173"
         style="font-style:normal;font-variant:normal;font-weight:bold;font-stretch:normal;font-family:'SF Pro Text';-inkscape-font-specification:'SF Pro Text';fill:url(#linearGradient174);stroke-width:1.30077"
         x="775.84515"
         y="675.74756">Build fast. Build right.</tspan></text></g></svg>
